<svg width="336" height="48" viewBox="0 0 336 48" fill="none" xmlns="http://www.w3.org/2000/svg">
<g clip-path="url(#clip0_8_12)">
<path fill-rule="evenodd" clip-rule="evenodd" d="M291.374 3.37413C288 6.74826 288 12.1788 288 23.04V24.96C288 35.8212 288 41.2517 291.374 44.6259C294.748 48 300.179 48 311.04 48H312.96C323.821 48 329.252 48 332.626 44.6259C336 41.2517 336 35.8212 336 24.96V23.04C336 12.1788 336 6.74826 332.626 3.37413C329.252 0 323.821 0 312.96 0H311.04C300.179 0 294.748 0 291.374 3.37413ZM296.1 14.6001C296.36 27.0801 302.6 34.5801 313.54 34.5801H314.16V27.4401C318.18 27.8401 321.22 30.7801 322.44 34.5801H328.12C326.56 28.9001 322.46 25.7601 319.9 24.5601C322.46 23.0801 326.06 19.4801 326.92 14.6001H321.76C320.64 18.5601 317.32 22.1601 314.16 22.5001V14.6001H309V28.4401C305.8 27.6401 301.76 23.7601 301.58 14.6001H296.1Z" fill="white"/>
</g>
<g clip-path="url(#clip1_8_12)">
<path fill-rule="evenodd" clip-rule="evenodd" d="M240 24C240 37.2548 229.255 48 216 48C202.745 48 192 37.2548 192 24C192 10.7452 202.745 0 216 0C229.255 0 240 10.7452 240 24ZM216.86 17.7179C214.526 18.6888 209.86 20.6984 202.864 23.7466C201.728 24.1984 201.133 24.6404 201.078 25.0726C200.987 25.803 201.901 26.0906 203.147 26.4822C203.316 26.5355 203.492 26.5907 203.672 26.6492C204.897 27.0475 206.546 27.5135 207.403 27.5321C208.18 27.5489 209.047 27.2284 210.005 26.5707C216.542 22.158 219.917 19.9276 220.129 19.8795C220.278 19.8456 220.485 19.803 220.626 19.9277C220.766 20.0524 220.752 20.2886 220.737 20.352C220.647 20.7383 217.056 24.0762 215.198 25.8036C214.619 26.3421 214.208 26.724 214.124 26.8113C213.936 27.0067 213.744 27.1915 213.56 27.3692C212.422 28.4667 211.568 29.2896 213.607 30.6336C214.587 31.2794 215.372 31.8135 216.154 32.3463C217.008 32.9282 217.861 33.5085 218.963 34.2313C219.244 34.4155 219.512 34.6068 219.774 34.7931C220.768 35.5019 221.661 36.1388 222.765 36.0373C223.406 35.9782 224.069 35.3752 224.405 33.5767C225.2 29.3263 226.763 20.1169 227.124 16.3219C227.156 15.9895 227.116 15.5639 227.084 15.3771C227.052 15.1904 226.986 14.9242 226.743 14.7272C226.455 14.4939 226.011 14.4447 225.813 14.4482C224.91 14.4641 223.525 14.9456 216.86 17.7179Z" fill="white"/>
</g>
<g clip-path="url(#clip2_8_12)">
<path d="M120 4.32187C126.413 4.32187 127.172 4.35 129.694 4.4625C132.038 4.56562 133.303 4.95938 134.147 5.2875C135.263 5.71875 136.069 6.24375 136.903 7.07812C137.747 7.92188 138.263 8.71875 138.694 9.83438C139.022 10.6781 139.416 11.9531 139.519 14.2875C139.631 16.8187 139.659 17.5781 139.659 23.9813C139.659 30.3938 139.631 31.1531 139.519 33.675C139.416 36.0188 139.022 37.2844 138.694 38.1281C138.263 39.2438 137.737 40.05 136.903 40.8844C136.059 41.7281 135.263 42.2438 134.147 42.675C133.303 43.0031 132.028 43.3969 129.694 43.5C127.163 43.6125 126.403 43.6406 120 43.6406C113.588 43.6406 112.828 43.6125 110.306 43.5C107.963 43.3969 106.697 43.0031 105.853 42.675C104.738 42.2438 103.931 41.7188 103.097 40.8844C102.253 40.0406 101.738 39.2438 101.306 38.1281C100.978 37.2844 100.584 36.0094 100.481 33.675C100.369 31.1438 100.341 30.3844 100.341 23.9813C100.341 17.5688 100.369 16.8094 100.481 14.2875C100.584 11.9437 100.978 10.6781 101.306 9.83438C101.738 8.71875 102.263 7.9125 103.097 7.07812C103.941 6.23438 104.738 5.71875 105.853 5.2875C106.697 4.95938 107.972 4.56562 110.306 4.4625C112.828 4.35 113.588 4.32187 120 4.32187ZM120 0C113.484 0 112.669 0.028125 110.109 0.140625C107.559 0.253125 105.806 0.665625 104.288 1.25625C102.703 1.875 101.363 2.69062 100.031 4.03125C98.6906 5.3625 97.875 6.70313 97.2563 8.27813C96.6656 9.80625 96.2531 11.55 96.1406 14.1C96.0281 16.6687 96 17.4844 96 24C96 30.5156 96.0281 31.3312 96.1406 33.8906C96.2531 36.4406 96.6656 38.1938 97.2563 39.7125C97.875 41.2969 98.6906 42.6375 100.031 43.9688C101.363 45.3 102.703 46.125 104.278 46.7344C105.806 47.325 107.55 47.7375 110.1 47.85C112.659 47.9625 113.475 47.9906 119.991 47.9906C126.506 47.9906 127.322 47.9625 129.881 47.85C132.431 47.7375 134.184 47.325 135.703 46.7344C137.278 46.125 138.619 45.3 139.95 43.9688C141.281 42.6375 142.106 41.2969 142.716 39.7219C143.306 38.1938 143.719 36.45 143.831 33.9C143.944 31.3406 143.972 30.525 143.972 24.0094C143.972 17.4938 143.944 16.6781 143.831 14.1188C143.719 11.5688 143.306 9.81563 142.716 8.29688C142.125 6.70312 141.309 5.3625 139.969 4.03125C138.638 2.7 137.297 1.875 135.722 1.26562C134.194 0.675 132.45 0.2625 129.9 0.15C127.331 0.028125 126.516 0 120 0Z" fill="white"/>
<path d="M120 11.6719C113.194 11.6719 107.672 17.1938 107.672 24C107.672 30.8062 113.194 36.3281 120 36.3281C126.806 36.3281 132.328 30.8062 132.328 24C132.328 17.1938 126.806 11.6719 120 11.6719ZM120 31.9969C115.584 31.9969 112.003 28.4156 112.003 24C112.003 19.5844 115.584 16.0031 120 16.0031C124.416 16.0031 127.997 19.5844 127.997 24C127.997 28.4156 124.416 31.9969 120 31.9969Z" fill="white"/>
<path d="M135.694 11.1843C135.694 12.778 134.4 14.0624 132.816 14.0624C131.222 14.0624 129.938 12.7687 129.938 11.1843C129.938 9.59053 131.231 8.30615 132.816 8.30615C134.4 8.30615 135.694 9.5999 135.694 11.1843Z" fill="white"/>
</g>
<g clip-path="url(#clip3_8_12)">
<path d="M48 24C48 10.7452 37.2548 0 24 0C10.7452 0 0 10.7452 0 24C0 35.9789 8.77641 45.908 20.25 47.7084V30.9375H14.1562V24H20.25V18.7125C20.25 12.6975 23.8331 9.375 29.3152 9.375C31.9402 9.375 34.6875 9.84375 34.6875 9.84375V15.75H31.6613C28.68 15.75 27.75 17.6002 27.75 19.5V24H34.4062L33.3422 30.9375H27.75V47.7084C39.2236 45.908 48 35.9789 48 24Z" fill="white"/>
</g>
<defs>
<clipPath id="clip0_8_12">
<rect width="48" height="48" fill="white" transform="translate(288)"/>
</clipPath>
<clipPath id="clip1_8_12">
<rect width="48" height="48" fill="white" transform="translate(192)"/>
</clipPath>
<clipPath id="clip2_8_12">
<rect width="48" height="48" fill="white" transform="translate(96)"/>
</clipPath>
<clipPath id="clip3_8_12">
<rect width="48" height="48" fill="white"/>
</clipPath>
</defs>
</svg>
