<svg width="39" height="37" viewBox="0 0 39 37" fill="none" xmlns="http://www.w3.org/2000/svg">
<mask id="path-1-inside-1_9_29" fill="white">
<path fill-rule="evenodd" clip-rule="evenodd" d="M32.135 15.9877C32.135 19.0339 31.4617 21.8812 30.2931 24.3042C34.1709 27.2274 37.246 31.678 39 37H9.21058e-06C1.75398 31.678 4.82907 27.2274 8.7069 24.3042C7.5383 21.8812 6.86498 19.0339 6.86498 15.9877C6.86498 7.15792 12.5219 0 19.5 0C26.4781 0 32.135 7.15792 32.135 15.9877Z"/>
</mask>
<path d="M30.2931 24.3042L27.591 23.001C26.9693 24.2899 27.3446 25.8384 28.4872 26.6998L30.2931 24.3042ZM39 37V40C39.9625 40 40.8666 39.5382 41.4308 38.7583C41.9949 37.9784 42.1505 36.9751 41.8493 36.061L39 37ZM9.21058e-06 37L-2.84924 36.061C-3.15052 36.9751 -2.99487 37.9784 -2.43074 38.7583C-1.86661 39.5382 -0.962528 40 9.21058e-06 40V37ZM8.7069 24.3042L10.5128 26.6998C11.6554 25.8384 12.0307 24.2899 11.409 23.001L8.7069 24.3042ZM32.9953 25.6075C34.3654 22.7666 35.135 19.4725 35.135 15.9877H29.135C29.135 18.5954 28.558 20.9958 27.591 23.001L32.9953 25.6075ZM41.8493 36.061C39.9304 30.2388 36.5283 25.2476 32.099 21.9086L28.4872 26.6998C31.8136 29.2073 34.5616 33.1172 36.1508 37.939L41.8493 36.061ZM9.21058e-06 40H39V34H9.21058e-06V40ZM6.90104 21.9086C2.47174 25.2476 -0.930423 30.2388 -2.84924 36.061L2.84926 37.939C4.43839 33.1172 7.18639 29.2073 10.5128 26.6998L6.90104 21.9086ZM3.86498 15.9877C3.86498 19.4725 4.63464 22.7666 6.00475 25.6075L11.409 23.001C10.442 20.9958 9.86498 18.5954 9.86498 15.9877H3.86498ZM19.5 -3C10.2453 -3 3.86498 6.19757 3.86498 15.9877H9.86498C9.86498 8.11826 14.7984 3 19.5 3V-3ZM35.135 15.9877C35.135 6.19757 28.7547 -3 19.5 -3V3C24.2016 3 29.135 8.11826 29.135 15.9877H35.135Z" fill="#FFFCFC" mask="url(#path-1-inside-1_9_29)"/>
</svg>
