<svg width="168" height="37" viewBox="0 0 168 37" fill="none" xmlns="http://www.w3.org/2000/svg">
<g filter="url(#filter0_i_9_32)">
<rect width="168" height="37" rx="18.5" fill="#E6CEB8"/>
<path d="M36.48 24.76L37.48 22.44C38.08 22.8 38.72 23.08 39.4 23.28C40.0933 23.4667 40.7667 23.5733 41.42 23.6C42.0867 23.6133 42.6867 23.5467 43.22 23.4C43.7667 23.2533 44.2 23.0333 44.52 22.74C44.8533 22.4467 45.02 22.0733 45.02 21.62C45.02 21.0867 44.8 20.6933 44.36 20.44C43.92 20.1733 43.3333 20.04 42.6 20.04H39.18V17.6H42.36C43.0133 17.6 43.52 17.4667 43.88 17.2C44.2533 16.9333 44.44 16.5667 44.44 16.1C44.44 15.7 44.3067 15.38 44.04 15.14C43.7733 14.8867 43.4067 14.7 42.94 14.58C42.4867 14.46 41.9733 14.4067 41.4 14.42C40.8267 14.4333 40.2333 14.5267 39.62 14.7C39.0067 14.8733 38.42 15.1133 37.86 15.42L36.88 12.92C37.7867 12.4533 38.74 12.1333 39.74 11.96C40.7533 11.7733 41.7267 11.7267 42.66 11.82C43.6067 11.9 44.46 12.1133 45.22 12.46C45.98 12.7933 46.5867 13.2333 47.04 13.78C47.4933 14.3267 47.72 14.9733 47.72 15.72C47.72 16.3867 47.5467 16.98 47.2 17.5C46.8533 18.02 46.3667 18.42 45.74 18.7C45.1267 18.98 44.42 19.12 43.62 19.12L43.7 18.4C44.6333 18.4 45.44 18.56 46.12 18.88C46.8133 19.1867 47.3467 19.62 47.72 20.18C48.1067 20.7267 48.3 21.36 48.3 22.08C48.3 22.7467 48.12 23.3467 47.76 23.88C47.4133 24.4 46.9333 24.84 46.32 25.2C45.7067 25.56 45.0067 25.8267 44.22 26C43.4333 26.1733 42.5933 26.2467 41.7 26.22C40.82 26.1933 39.9333 26.0667 39.04 25.84C38.1467 25.6 37.2933 25.24 36.48 24.76ZM57.065 26V23.9L56.865 23.44V19.68C56.865 19.0133 56.6583 18.4933 56.245 18.12C55.845 17.7467 55.225 17.56 54.385 17.56C53.8117 17.56 53.245 17.6533 52.685 17.84C52.1383 18.0133 51.6717 18.2533 51.285 18.56L50.165 16.38C50.7517 15.9667 51.4583 15.6467 52.285 15.42C53.1117 15.1933 53.9517 15.08 54.805 15.08C56.445 15.08 57.7183 15.4667 58.625 16.24C59.5317 17.0133 59.985 18.22 59.985 19.86V26H57.065ZM53.785 26.16C52.945 26.16 52.225 26.02 51.625 25.74C51.025 25.4467 50.565 25.0533 50.245 24.56C49.925 24.0667 49.765 23.5133 49.765 22.9C49.765 22.26 49.9183 21.7 50.225 21.22C50.545 20.74 51.045 20.3667 51.725 20.1C52.405 19.82 53.2917 19.68 54.385 19.68H57.245V21.5H54.725C53.9917 21.5 53.485 21.62 53.205 21.86C52.9383 22.1 52.805 22.4 52.805 22.76C52.805 23.16 52.9583 23.48 53.265 23.72C53.585 23.9467 54.0183 24.06 54.565 24.06C55.085 24.06 55.5517 23.94 55.965 23.7C56.3783 23.4467 56.6783 23.08 56.865 22.6L57.345 24.04C57.1183 24.7333 56.705 25.26 56.105 25.62C55.505 25.98 54.7317 26.16 53.785 26.16ZM70.3153 26L66.7153 20.9L69.2553 19.4L73.9953 26H70.3153ZM62.6953 26V15.24H65.8153V26H62.6953ZM64.8953 21.92V19.42H68.6553V21.92H64.8953ZM69.5553 20.98L66.6353 20.66L70.4153 15.24H73.7353L69.5553 20.98ZM81.772 26V23.9L81.572 23.44V19.68C81.572 19.0133 81.3654 18.4933 80.952 18.12C80.552 17.7467 79.932 17.56 79.092 17.56C78.5187 17.56 77.952 17.6533 77.392 17.84C76.8454 18.0133 76.3787 18.2533 75.992 18.56L74.872 16.38C75.4587 15.9667 76.1654 15.6467 76.992 15.42C77.8187 15.1933 78.6587 15.08 79.512 15.08C81.152 15.08 82.4254 15.4667 83.332 16.24C84.2387 17.0133 84.692 18.22 84.692 19.86V26H81.772ZM78.492 26.16C77.652 26.16 76.932 26.02 76.332 25.74C75.732 25.4467 75.272 25.0533 74.952 24.56C74.632 24.0667 74.472 23.5133 74.472 22.9C74.472 22.26 74.6254 21.7 74.932 21.22C75.252 20.74 75.752 20.3667 76.432 20.1C77.112 19.82 77.9987 19.68 79.092 19.68H81.952V21.5H79.432C78.6987 21.5 78.192 21.62 77.912 21.86C77.6454 22.1 77.512 22.4 77.512 22.76C77.512 23.16 77.6654 23.48 77.972 23.72C78.292 23.9467 78.7254 24.06 79.272 24.06C79.792 24.06 80.2587 23.94 80.672 23.7C81.0854 23.4467 81.3854 23.08 81.572 22.6L82.052 24.04C81.8254 24.7333 81.412 25.26 80.812 25.62C80.212 25.98 79.4387 26.16 78.492 26.16ZM90.9447 26.2C91.958 26.2 92.8647 26.0667 93.6647 25.8C94.478 25.52 95.118 25.1267 95.5847 24.62C96.0647 24.1 96.3047 23.4933 96.3047 22.8C96.3047 21.9867 95.9647 21.3467 95.2847 20.88C94.6047 20.4 93.6714 20.16 92.4847 20.16L92.4047 20.78C93.0847 20.78 93.698 20.6667 94.2447 20.44C94.7914 20.2 95.218 19.8733 95.5247 19.46C95.8447 19.0467 96.0047 18.58 96.0047 18.06C96.0047 17.4067 95.7714 16.8533 95.3047 16.4C94.8514 15.9467 94.2247 15.6 93.4247 15.36C92.6247 15.12 91.7247 15.0133 90.7247 15.04C90.0447 15.0533 89.358 15.1467 88.6647 15.32C87.9714 15.4933 87.2714 15.7267 86.5647 16.02L87.3247 18.18C87.9247 17.94 88.5114 17.76 89.0847 17.64C89.658 17.5067 90.2114 17.44 90.7447 17.44C91.2114 17.44 91.598 17.4867 91.9047 17.58C92.2114 17.66 92.4447 17.78 92.6047 17.94C92.7647 18.1 92.8447 18.2933 92.8447 18.52C92.8447 18.7333 92.778 18.92 92.6447 19.08C92.5247 19.2267 92.338 19.34 92.0847 19.42C91.8314 19.5 91.5247 19.54 91.1647 19.54H89.2247V21.48H91.4247C91.9847 21.48 92.4114 21.5733 92.7047 21.76C92.998 21.9333 93.1447 22.1933 93.1447 22.54C93.1447 22.8067 93.0514 23.0333 92.8647 23.22C92.678 23.4067 92.4047 23.5533 92.0447 23.66C91.698 23.7533 91.2847 23.8 90.8047 23.8C90.138 23.8 89.478 23.7333 88.8247 23.6C88.1847 23.4533 87.5914 23.2467 87.0447 22.98L86.2047 25.16C86.898 25.5067 87.6514 25.7667 88.4647 25.94C89.2914 26.1133 90.118 26.2 90.9447 26.2ZM104.975 26V23.9L104.775 23.44V19.68C104.775 19.0133 104.568 18.4933 104.155 18.12C103.755 17.7467 103.135 17.56 102.295 17.56C101.722 17.56 101.155 17.6533 100.595 17.84C100.048 18.0133 99.5818 18.2533 99.1952 18.56L98.0752 16.38C98.6618 15.9667 99.3685 15.6467 100.195 15.42C101.022 15.1933 101.862 15.08 102.715 15.08C104.355 15.08 105.628 15.4667 106.535 16.24C107.442 17.0133 107.895 18.22 107.895 19.86V26H104.975ZM101.695 26.16C100.855 26.16 100.135 26.02 99.5352 25.74C98.9352 25.4467 98.4752 25.0533 98.1552 24.56C97.8352 24.0667 97.6752 23.5133 97.6752 22.9C97.6752 22.26 97.8285 21.7 98.1352 21.22C98.4552 20.74 98.9552 20.3667 99.6352 20.1C100.315 19.82 101.202 19.68 102.295 19.68H105.155V21.5H102.635C101.902 21.5 101.395 21.62 101.115 21.86C100.848 22.1 100.715 22.4 100.715 22.76C100.715 23.16 100.868 23.48 101.175 23.72C101.495 23.9467 101.928 24.06 102.475 24.06C102.995 24.06 103.462 23.94 103.875 23.7C104.288 23.4467 104.588 23.08 104.775 22.6L105.255 24.04C105.028 24.7333 104.615 25.26 104.015 25.62C103.415 25.98 102.642 26.16 101.695 26.16ZM112.905 26V17.08L113.605 17.8H109.265V15.24H119.645V17.8H115.305L116.005 17.08V26H112.905ZM127.129 18.68C128.542 18.6933 129.615 19.0133 130.349 19.64C131.095 20.2533 131.469 21.1267 131.469 22.26C131.469 23.4467 131.049 24.3733 130.209 25.04C129.369 25.6933 128.202 26.02 126.709 26.02L121.309 26V15.24H124.409V18.68H127.129ZM126.429 23.8C127.029 23.8133 127.489 23.6867 127.809 23.42C128.129 23.1533 128.289 22.7533 128.289 22.22C128.289 21.6867 128.129 21.3067 127.809 21.08C127.489 20.84 127.029 20.7133 126.429 20.7L124.409 20.68V23.8H126.429Z" fill="#84B0A5"/>
</g>
<defs>
<filter id="filter0_i_9_32" x="0" y="0" width="168" height="41" filterUnits="userSpaceOnUse" color-interpolation-filters="sRGB">
<feFlood flood-opacity="0" result="BackgroundImageFix"/>
<feBlend mode="normal" in="SourceGraphic" in2="BackgroundImageFix" result="shape"/>
<feColorMatrix in="SourceAlpha" type="matrix" values="0 0 0 0 0 0 0 0 0 0 0 0 0 0 0 0 0 0 127 0" result="hardAlpha"/>
<feOffset dy="4"/>
<feGaussianBlur stdDeviation="2"/>
<feComposite in2="hardAlpha" operator="arithmetic" k2="-1" k3="1"/>
<feColorMatrix type="matrix" values="0 0 0 0 0 0 0 0 0 0 0 0 0 0 0 0 0 0 0.25 0"/>
<feBlend mode="normal" in2="shape" result="effect1_innerShadow_9_32"/>
</filter>
</defs>
</svg>
